<svg width="600" height="200" viewBox="0 0 600 200" xmlns="http://www.w3.org/2000/svg">
  <title>HUB INMOBILIARIA</title>
  <polygon points="100,20 161.5,55 161.5,125 100,160 38.5,125 38.5,55" fill="#0A2540"/>
  <line x1="100" y1="90" x2="68" y2="70" stroke="#65A30D" stroke-width="2.5" stroke-linecap="round"/>
  <line x1="100" y1="90" x2="132" y2="70" stroke="#65A30D" stroke-width="2.5" stroke-linecap="round"/>
  <line x1="100" y1="90" x2="132" y2="110" stroke="#65A30D" stroke-width="2.5" stroke-linecap="round"/>
  <line x1="100" y1="90" x2="68" y2="110" stroke="#65A30D" stroke-width="2.5" stroke-linecap="round"/>
  <circle cx="68" cy="70" r="5" fill="#65A30D"/>
  <circle cx="132" cy="70" r="5" fill="#65A30D"/>
  <circle cx="132" cy="110" r="5" fill="#65A30D"/>
  <circle cx="68" cy="110" r="5" fill="#65A30D"/>
  <circle cx="100" cy="90" r="11" fill="#FFFFFF"/>
  <circle cx="100" cy="90" r="11" fill="none" stroke="#65A30D" stroke-width="2"/>
  <path d="M116 0H469V617H1064V0H1416V1490H1064V905H469V1490H116Z" fill="#0A2540" transform="translate(200.00,105.00) scale(0.0410,-0.0410)"/>
  <path d="M744 -19C1119 -19 1373 196 1373 529V1490H1020V558C1020 401 909 289 744 289C581 289 469 401 469 558V1490H116V529C116 196 367 -19 744 -19Z" fill="#0A2540" transform="translate(259.88,105.00) scale(0.0410,-0.0410)"/>
  <path d="M116 0H780C1110 0 1297 176 1297 416C1297 632 1141 767 962 774V790C1124 823 1239 941 1239 1112C1239 1337 1067 1490 734 1490H116ZM469 285V647H704C843 647 929 572 929 456C929 350 855 285 697 285ZM469 876V1208H680C802 1208 879 1145 879 1045C879 938 793 876 674 876Z" fill="#0A2540" transform="translate(317.95,105.00) scale(0.0410,-0.0410)"/>
  <path d="M417 1490H150V0H417Z" fill="#65A30D" transform="translate(202.00,140.00) scale(0.0098,-0.0098)"/>
  <path d="M150 0H422V740C422 823 413 980 403 1164C503 970 559 864 637 739L1102 0H1405V1490H1134V708C1134 617 1140 466 1150 322C1085 471 1020 584 967 669L452 1490H150Z" fill="#65A30D" transform="translate(208.54,140.00) scale(0.0098,-0.0098)"/>
  <path d="M150 0H412V752C412 865 406 1071 402 1240C457 1048 517 849 552 752L831 0H1058L1333 752C1368 852 1431 1057 1482 1248C1479 1071 1473 863 1473 752V0H1739V1490H1336L1056 721C1027 632 981 448 946 301C912 450 865 633 835 721L552 1490H150Z" fill="#65A30D" transform="translate(224.72,140.00) scale(0.0098,-0.0098)"/>
  <path d="M788 -20C1178 -20 1471 263 1471 744C1471 1226 1178 1510 788 1510C397 1510 103 1226 103 744C103 264 397 -20 788 -20ZM788 219C544 219 371 405 371 744C371 1085 544 1271 788 1271C1030 1271 1202 1086 1202 744C1202 404 1030 219 788 219Z" fill="#65A30D" transform="translate(244.17,140.00) scale(0.0098,-0.0098)"/>
  <path d="M150 0H751C1092 0 1259 174 1259 406C1259 631 1099 763 941 771V786C1086 820 1201 922 1201 1103C1201 1324 1042 1490 720 1490H150ZM417 223V662H718C884 662 988 559 988 426C988 308 906 223 709 223ZM417 855V1268H692C852 1268 934 1184 934 1069C934 937 827 855 686 855Z" fill="#65A30D" transform="translate(260.54,140.00) scale(0.0098,-0.0098)"/>
  <path d="M417 1490H150V0H417Z" fill="#65A30D" transform="translate(274.72,140.00) scale(0.0098,-0.0098)"/>
  <path d="M150 0H1075V225H417V1490H150Z" fill="#65A30D" transform="translate(281.26,140.00) scale(0.0098,-0.0098)"/>
  <path d="M417 1490H150V0H417Z" fill="#65A30D" transform="translate(293.57,140.00) scale(0.0098,-0.0098)"/>
  <path d="M50 0H342L464 369H1021L1148 0H1441L909 1490H570ZM535 584 598 774C639 907 684 1074 737 1282C792 1076 839 911 883 774L948 584Z" fill="#65A30D" transform="translate(300.11,140.00) scale(0.0098,-0.0098)"/>
  <path d="M150 0H417V547H695L988 0H1287L964 592C1140 662 1232 811 1232 1013C1232 1297 1050 1490 707 1490H150ZM417 768V1266H666C869 1266 959 1172 959 1013C959 855 869 768 668 768Z" fill="#65A30D" transform="translate(315.66,140.00) scale(0.0098,-0.0098)"/>
  <path d="M417 1490H150V0H417Z" fill="#65A30D" transform="translate(329.71,140.00) scale(0.0098,-0.0098)"/>
  <path d="M50 0H342L464 369H1021L1148 0H1441L909 1490H570ZM535 584 598 774C639 907 684 1074 737 1282C792 1076 839 911 883 774L948 584Z" fill="#65A30D" transform="translate(336.24,140.00) scale(0.0098,-0.0098)"/>
</svg>
