<svg width="600" height="200" viewBox="0 0 600 200" xmlns="http://www.w3.org/2000/svg">
  <title>HUB PET</title>
  <polygon points="100,20 161.5,55 161.5,125 100,160 38.5,125 38.5,55" fill="#16263D"/>
  <line x1="100" y1="90" x2="68" y2="70" stroke="#FB7185" stroke-width="2.5" stroke-linecap="round"/>
  <line x1="100" y1="90" x2="132" y2="70" stroke="#FB7185" stroke-width="2.5" stroke-linecap="round"/>
  <line x1="100" y1="90" x2="132" y2="110" stroke="#FB7185" stroke-width="2.5" stroke-linecap="round"/>
  <line x1="100" y1="90" x2="68" y2="110" stroke="#FB7185" stroke-width="2.5" stroke-linecap="round"/>
  <circle cx="68" cy="70" r="5" fill="#FB7185"/>
  <circle cx="132" cy="70" r="5" fill="#FB7185"/>
  <circle cx="132" cy="110" r="5" fill="#FB7185"/>
  <circle cx="68" cy="110" r="5" fill="#FB7185"/>
  <circle cx="100" cy="90" r="11" fill="#FFFFFF"/>
  <circle cx="100" cy="90" r="11" fill="none" stroke="#FB7185" stroke-width="2"/>
  <path d="M116 0H469V617H1064V0H1416V1490H1064V905H469V1490H116Z" fill="#FFFFFF" transform="translate(200.00,105.00) scale(0.0410,-0.0410)"/>
  <path d="M744 -19C1119 -19 1373 196 1373 529V1490H1020V558C1020 401 909 289 744 289C581 289 469 401 469 558V1490H116V529C116 196 367 -19 744 -19Z" fill="#FFFFFF" transform="translate(259.88,105.00) scale(0.0410,-0.0410)"/>
  <path d="M116 0H780C1110 0 1297 176 1297 416C1297 632 1141 767 962 774V790C1124 823 1239 941 1239 1112C1239 1337 1067 1490 734 1490H116ZM469 285V647H704C843 647 929 572 929 456C929 350 855 285 697 285ZM469 876V1208H680C802 1208 879 1145 879 1045C879 938 793 876 674 876Z" fill="#FFFFFF" transform="translate(317.95,105.00) scale(0.0410,-0.0410)"/>
  <path d="M150 0H417V504H703C1047 504 1232 711 1232 997C1232 1281 1050 1490 707 1490H150ZM417 724V1266H666C870 1266 959 1156 959 997C959 838 870 724 668 724Z" fill="#FB7185" transform="translate(202.00,140.00) scale(0.0098,-0.0098)"/>
  <path d="M150 0H1122V225H417V641H1066V863H417V1265H1118V1490H150Z" fill="#FB7185" transform="translate(230.90,140.00) scale(0.0098,-0.0098)"/>
  <path d="M83 1265H543V0H810V1265H1269V1490H83Z" fill="#FB7185" transform="translate(259.01,140.00) scale(0.0098,-0.0098)"/>
</svg>
