<svg width="620" height="200" viewBox="0 0 620 200" xmlns="http://www.w3.org/2000/svg">
  <title>HUB SUITE — paraguas</title>
  <polygon points="100,20 161.5,55 161.5,125 100,160 38.5,125 38.5,55" fill="#0A2540"/>
  <line x1="100" y1="90" x2="68" y2="70" stroke="#0E7490" stroke-width="2.5" stroke-linecap="round"/>
  <line x1="100" y1="90" x2="132" y2="70" stroke="#0E7490" stroke-width="2.5" stroke-linecap="round"/>
  <line x1="100" y1="90" x2="132" y2="110" stroke="#0E7490" stroke-width="2.5" stroke-linecap="round"/>
  <line x1="100" y1="90" x2="68" y2="110" stroke="#0E7490" stroke-width="2.5" stroke-linecap="round"/>
  <circle cx="68" cy="70" r="5" fill="#0E7490"/>
  <circle cx="132" cy="70" r="5" fill="#0E7490"/>
  <circle cx="132" cy="110" r="5" fill="#0E7490"/>
  <circle cx="68" cy="110" r="5" fill="#0E7490"/>
  <circle cx="100" cy="90" r="11" fill="#FFFFFF"/>
  <circle cx="100" cy="90" r="11" fill="none" stroke="#0E7490" stroke-width="2"/>
  <path d="M116 0H469V617H1064V0H1416V1490H1064V905H469V1490H116Z" fill="#0A2540" transform="translate(200.00,95.00) scale(0.0410,-0.0410)"/>
  <path d="M744 -19C1119 -19 1373 196 1373 529V1490H1020V558C1020 401 909 289 744 289C581 289 469 401 469 558V1490H116V529C116 196 367 -19 744 -19Z" fill="#0A2540" transform="translate(259.88,95.00) scale(0.0410,-0.0410)"/>
  <path d="M116 0H780C1110 0 1297 176 1297 416C1297 632 1141 767 962 774V790C1124 823 1239 941 1239 1112C1239 1337 1067 1490 734 1490H116ZM469 285V647H704C843 647 929 572 929 456C929 350 855 285 697 285ZM469 876V1208H680C802 1208 879 1145 879 1045C879 938 793 876 674 876Z" fill="#0A2540" transform="translate(317.95,95.00) scale(0.0410,-0.0410)"/>
  <path d="M691 -20C1060 -20 1280 149 1280 432C1280 670 1113 814 825 877L696 907C563 937 476 981 476 1073C476 1156 549 1217 690 1217C832 1217 911 1154 921 1046H1260C1256 1322 1036 1510 691 1510C353 1510 111 1325 111 1049C111 825 267 696 524 637L682 600C845 563 923 518 923 433C923 338 833 273 687 273C526 273 419 347 411 492H72C78 148 318 -20 691 -20Z" fill="#0E7490" transform="translate(202.00,158.00) scale(0.0293,-0.0293)"/>
  <path d="M744 -19C1119 -19 1373 196 1373 529V1490H1020V558C1020 401 909 289 744 289C581 289 469 401 469 558V1490H116V529C116 196 367 -19 744 -19Z" fill="#0E7490" transform="translate(239.61,158.00) scale(0.0293,-0.0293)"/>
  <path d="M469 1490H116V0H469Z" fill="#0E7490" transform="translate(281.23,158.00) scale(0.0293,-0.0293)"/>
  <path d="M66 1202H517V0H869V1202H1320V1490H66Z" fill="#0E7490" transform="translate(296.37,158.00) scale(0.0293,-0.0293)"/>
  <path d="M116 0H1149V288H469V612H1096V894H469V1202H1150V1490H116Z" fill="#0E7490" transform="translate(334.98,158.00) scale(0.0293,-0.0293)"/>
</svg>
