<svg width="600" height="200" viewBox="0 0 600 200" xmlns="http://www.w3.org/2000/svg">
  <title>HUB GYM</title>
  <polygon points="100,20 161.5,55 161.5,125 100,160 38.5,125 38.5,55" fill="#0A2540"/>
  <line x1="100" y1="90" x2="68" y2="70" stroke="#DC2626" stroke-width="2.5" stroke-linecap="round"/>
  <line x1="100" y1="90" x2="132" y2="70" stroke="#DC2626" stroke-width="2.5" stroke-linecap="round"/>
  <line x1="100" y1="90" x2="132" y2="110" stroke="#DC2626" stroke-width="2.5" stroke-linecap="round"/>
  <line x1="100" y1="90" x2="68" y2="110" stroke="#DC2626" stroke-width="2.5" stroke-linecap="round"/>
  <circle cx="68" cy="70" r="5" fill="#DC2626"/>
  <circle cx="132" cy="70" r="5" fill="#DC2626"/>
  <circle cx="132" cy="110" r="5" fill="#DC2626"/>
  <circle cx="68" cy="110" r="5" fill="#DC2626"/>
  <circle cx="100" cy="90" r="11" fill="#FFFFFF"/>
  <circle cx="100" cy="90" r="11" fill="none" stroke="#DC2626" stroke-width="2"/>
  <path d="M116 0H469V617H1064V0H1416V1490H1064V905H469V1490H116Z" fill="#0A2540" transform="translate(200.00,105.00) scale(0.0410,-0.0410)"/>
  <path d="M744 -19C1119 -19 1373 196 1373 529V1490H1020V558C1020 401 909 289 744 289C581 289 469 401 469 558V1490H116V529C116 196 367 -19 744 -19Z" fill="#0A2540" transform="translate(259.88,105.00) scale(0.0410,-0.0410)"/>
  <path d="M116 0H780C1110 0 1297 176 1297 416C1297 632 1141 767 962 774V790C1124 823 1239 941 1239 1112C1239 1337 1067 1490 734 1490H116ZM469 285V647H704C843 647 929 572 929 456C929 350 855 285 697 285ZM469 876V1208H680C802 1208 879 1145 879 1045C879 938 793 876 674 876Z" fill="#0A2540" transform="translate(317.95,105.00) scale(0.0410,-0.0410)"/>
  <path d="M793 -20C1161 -20 1425 217 1425 600V779H822V569H1166C1161 355 1018 219 794 219C543 219 371 408 371 745C371 1083 547 1271 788 1271C969 1271 1091 1173 1139 1014H1412C1366 1307 1113 1510 785 1510C395 1510 103 1223 103 743C103 272 382 -20 793 -20Z" fill="#DC2626" transform="translate(202.00,140.00) scale(0.0098,-0.0098)"/>
  <path d="M600 0H867V577L1411 1490H1101L840 1020C801 949 768 885 735 800C702 883 669 947 628 1020L362 1490H50L600 577Z" fill="#DC2626" transform="translate(232.98,140.00) scale(0.0098,-0.0098)"/>
  <path d="M150 0H412V752C412 865 406 1071 402 1240C457 1048 517 849 552 752L831 0H1058L1333 752C1368 852 1431 1057 1482 1248C1479 1071 1473 863 1473 752V0H1739V1490H1336L1056 721C1027 632 981 448 946 301C912 450 865 633 835 721L552 1490H150Z" fill="#DC2626" transform="translate(263.25,140.00) scale(0.0098,-0.0098)"/>
</svg>
